<svg xmlns="http://www.w3.org/2000/svg" viewBox="0 0 400 300" role="img" aria-label="Illustration of a loaf of bread and wheat"><title>Illustration of a loaf of bread and wheat</title><rect width="400" height="300" fill="#F7F2EA"/><circle cx="200" cy="152" r="112" fill="#EADCC6" opacity=".55"/><circle cx="38" cy="48" r="4" fill="#C9A46A" opacity=".35"/><circle cx="70" cy="262" r="3" fill="#C9A46A" opacity=".35"/><circle cx="352" cy="40" r="3" fill="#C9A46A" opacity=".35"/><circle cx="368" cy="250" r="5" fill="#C9A46A" opacity=".35"/><circle cx="320" cy="90" r="2.5" fill="#C9A46A" opacity=".35"/><circle cx="60" cy="150" r="2.5" fill="#C9A46A" opacity=".35"/><circle cx="345" cy="170" r="2.5" fill="#C9A46A" opacity=".35"/><g transform="translate(22 20) rotate(35) scale(0.9)"><path d="M0 0 C10 -13 30 -13 42 0 C30 13 10 13 0 0Z" fill="#C9A46A"/><path d="M3 0 H36" stroke="#FFFFFF" stroke-width="1.6" stroke-linecap="round" opacity=".7"/></g><g transform="translate(378 282) rotate(215) scale(0.9)"><path d="M0 0 C10 -13 30 -13 42 0 C30 13 10 13 0 0Z" fill="#C9A46A"/><path d="M3 0 H36" stroke="#FFFFFF" stroke-width="1.6" stroke-linecap="round" opacity=".7"/></g><ellipse cx="200" cy="232" rx="110" ry="8" fill="#6F5A3A" opacity=".15"/><path d="M96 224 V168 C96 110 150 92 200 92 C250 92 304 110 304 168 V224Z" fill="#C9A46A"/><path d="M96 206 H304 V224 H96Z" fill="#6F5A3A" opacity=".25"/><path d="M138 118 q18 20 30 40" stroke="#6F5A3A" stroke-width="5" fill="none" stroke-linecap="round" opacity=".5"/><path d="M180 118 q18 20 30 40" stroke="#6F5A3A" stroke-width="5" fill="none" stroke-linecap="round" opacity=".5"/><path d="M222 118 q18 20 30 40" stroke="#6F5A3A" stroke-width="5" fill="none" stroke-linecap="round" opacity=".5"/><path d="M318 230 Q322 150 334 88" stroke="#F6B73C" stroke-width="4" fill="none"/><ellipse cx="326" cy="96" rx="5" ry="11" fill="#F6B73C" transform="rotate(-30 326 96)"/><ellipse cx="342" cy="96" rx="5" ry="11" fill="#F6B73C" transform="rotate(30 342 96)"/><ellipse cx="323" cy="114" rx="5" ry="11" fill="#F6B73C" transform="rotate(-30 323 114)"/><ellipse cx="339" cy="114" rx="5" ry="11" fill="#F6B73C" transform="rotate(30 339 114)"/><ellipse cx="320" cy="132" rx="5" ry="11" fill="#F6B73C" transform="rotate(-30 320 132)"/><ellipse cx="336" cy="132" rx="5" ry="11" fill="#F6B73C" transform="rotate(30 336 132)"/><ellipse cx="317" cy="150" rx="5" ry="11" fill="#F6B73C" transform="rotate(-30 317 150)"/><ellipse cx="333" cy="150" rx="5" ry="11" fill="#F6B73C" transform="rotate(30 333 150)"/></svg>
