<svg xmlns="http://www.w3.org/2000/svg" viewBox="0 0 400 300" role="img" aria-label="Illustration of an empty weekly calendar"><title>Illustration of an empty weekly calendar</title><rect width="400" height="300" fill="#E6F3FA"/><circle cx="200" cy="152" r="112" fill="#BADEF0" opacity=".55"/><circle cx="38" cy="48" r="4" fill="#4AA8D8" opacity=".35"/><circle cx="70" cy="262" r="3" fill="#4AA8D8" opacity=".35"/><circle cx="352" cy="40" r="3" fill="#4AA8D8" opacity=".35"/><circle cx="368" cy="250" r="5" fill="#4AA8D8" opacity=".35"/><circle cx="320" cy="90" r="2.5" fill="#4AA8D8" opacity=".35"/><circle cx="60" cy="150" r="2.5" fill="#4AA8D8" opacity=".35"/><circle cx="345" cy="170" r="2.5" fill="#4AA8D8" opacity=".35"/><g transform="translate(22 20) rotate(35) scale(0.9)"><path d="M0 0 C10 -13 30 -13 42 0 C30 13 10 13 0 0Z" fill="#4AA8D8"/><path d="M3 0 H36" stroke="#FFFFFF" stroke-width="1.6" stroke-linecap="round" opacity=".7"/></g><g transform="translate(378 282) rotate(215) scale(0.9)"><path d="M0 0 C10 -13 30 -13 42 0 C30 13 10 13 0 0Z" fill="#4AA8D8"/><path d="M3 0 H36" stroke="#FFFFFF" stroke-width="1.6" stroke-linecap="round" opacity=".7"/></g><ellipse cx="200" cy="246" rx="80" ry="7" fill="#295C77" opacity=".15"/><rect x="126" y="74" width="148" height="166" rx="18" fill="#FFFFFF"/><path d="M126 110 V92 a18 18 0 0 1 18 -18 H256 a18 18 0 0 1 18 18 V110Z" fill="#4AA8D8"/><rect x="156" y="62" width="10" height="26" rx="5" fill="#295C77" opacity=".7"/><rect x="234" y="62" width="10" height="26" rx="5" fill="#295C77" opacity=".7"/><rect x="146" y="128" width="30" height="32" rx="7" fill="#E6F3FA"/><rect x="184" y="128" width="30" height="32" rx="7" fill="#E6F3FA"/><rect x="222" y="128" width="30" height="32" rx="7" fill="#E6F3FA"/><rect x="146" y="170" width="30" height="32" rx="7" fill="#E6F3FA"/><rect x="184" y="170" width="30" height="32" rx="7" fill="#E6F3FA"/><rect x="222" y="170" width="30" height="32" rx="7" fill="#E6F3FA"/><rect x="146" y="212" width="106" height="12" rx="6" fill="#E6F3FA"/><circle cx="199" cy="186" r="12" fill="#FFFFFF" stroke="#BADEF0" stroke-width="2.5"/><g transform="translate(193 187) rotate(-40) scale(0.28)"><path d="M0 0 C10 -13 30 -13 42 0 C30 13 10 13 0 0Z" fill="#2F9E6E"/><path d="M3 0 H36" stroke="#FFFFFF" stroke-width="1.6" stroke-linecap="round" opacity=".7"/></g><circle cx="274" cy="232" r="24" fill="#2F9E6E"/><path d="M274 220 V244 M262 232 H286" stroke="#FFFFFF" stroke-width="5" stroke-linecap="round"/></svg>
