<svg xmlns="http://www.w3.org/2000/svg" viewBox="0 0 400 300" role="img" aria-label="Illustration of a glass with lemon and a straw"><title>Illustration of a glass with lemon and a straw</title><rect width="400" height="300" fill="#E6F3FA"/><circle cx="200" cy="152" r="112" fill="#BADEF0" opacity=".55"/><circle cx="38" cy="48" r="4" fill="#4AA8D8" opacity=".35"/><circle cx="70" cy="262" r="3" fill="#4AA8D8" opacity=".35"/><circle cx="352" cy="40" r="3" fill="#4AA8D8" opacity=".35"/><circle cx="368" cy="250" r="5" fill="#4AA8D8" opacity=".35"/><circle cx="320" cy="90" r="2.5" fill="#4AA8D8" opacity=".35"/><circle cx="60" cy="150" r="2.5" fill="#4AA8D8" opacity=".35"/><circle cx="345" cy="170" r="2.5" fill="#4AA8D8" opacity=".35"/><g transform="translate(22 20) rotate(35) scale(0.9)"><path d="M0 0 C10 -13 30 -13 42 0 C30 13 10 13 0 0Z" fill="#4AA8D8"/><path d="M3 0 H36" stroke="#FFFFFF" stroke-width="1.6" stroke-linecap="round" opacity=".7"/></g><g transform="translate(378 282) rotate(215) scale(0.9)"><path d="M0 0 C10 -13 30 -13 42 0 C30 13 10 13 0 0Z" fill="#4AA8D8"/><path d="M3 0 H36" stroke="#FFFFFF" stroke-width="1.6" stroke-linecap="round" opacity=".7"/></g><ellipse cx="200" cy="252" rx="56" ry="7" fill="#295C77" opacity=".15"/><path d="M258 60 L226 150" stroke="#E8546B" stroke-width="9" stroke-linecap="round"/><path d="M150 96 H250 L238 246 H162Z" fill="#FFFFFF" opacity=".85"/><path d="M154 128 H246 L238 242 H162Z" fill="#4AA8D8" opacity=".7"/><rect x="166" y="136" width="26" height="26" rx="5" fill="#FFFFFF" opacity=".75" transform="rotate(12 179 149)"/><rect x="200" y="150" width="26" height="26" rx="5" fill="#FFFFFF" opacity=".75" transform="rotate(-10 213 163)"/><circle cx="180" cy="200" r="4" fill="#FFFFFF" opacity=".8"/><circle cx="214" cy="214" r="3" fill="#FFFFFF" opacity=".8"/><circle cx="196" cy="226" r="5" fill="#FFFFFF" opacity=".8"/><circle cx="224" cy="188" r="3" fill="#FFFFFF" opacity=".8"/><circle cx="152" cy="100" r="30" fill="#F6B73C"/><circle cx="152" cy="100" r="23" fill="#FCE6A6"/><path d="M152 100 L173 100" stroke="#F6B73C" stroke-width="2.5"/><path d="M152 100 L131 100" stroke="#F6B73C" stroke-width="2.5"/><path d="M152 100 L152 121" stroke="#F6B73C" stroke-width="2.5"/><path d="M152 100 L152 79" stroke="#F6B73C" stroke-width="2.5"/><path d="M152 100 L166.7 114.7" stroke="#F6B73C" stroke-width="2.5"/><path d="M152 100 L137.3 114.7" stroke="#F6B73C" stroke-width="2.5"/><path d="M152 100 L166.7 85.3" stroke="#F6B73C" stroke-width="2.5"/><path d="M152 100 L137.3 85.3" stroke="#F6B73C" stroke-width="2.5"/><g transform="translate(244 92) rotate(-40) scale(0.7)"><path d="M0 0 C10 -13 30 -13 42 0 C30 13 10 13 0 0Z" fill="#2F9E6E"/><path d="M3 0 H36" stroke="#FFFFFF" stroke-width="1.6" stroke-linecap="round" opacity=".7"/></g></svg>
