<svg xmlns="http://www.w3.org/2000/svg" viewBox="0 0 400 300" role="img" aria-label="Illustration of vegetable sticks with a dip"><title>Illustration of vegetable sticks with a dip</title><rect width="400" height="300" fill="#E1F2F2"/><circle cx="200" cy="152" r="112" fill="#AEDCDB" opacity=".55"/><circle cx="38" cy="48" r="4" fill="#2BA3A0" opacity=".35"/><circle cx="70" cy="262" r="3" fill="#2BA3A0" opacity=".35"/><circle cx="352" cy="40" r="3" fill="#2BA3A0" opacity=".35"/><circle cx="368" cy="250" r="5" fill="#2BA3A0" opacity=".35"/><circle cx="320" cy="90" r="2.5" fill="#2BA3A0" opacity=".35"/><circle cx="60" cy="150" r="2.5" fill="#2BA3A0" opacity=".35"/><circle cx="345" cy="170" r="2.5" fill="#2BA3A0" opacity=".35"/><g transform="translate(22 20) rotate(35) scale(0.9)"><path d="M0 0 C10 -13 30 -13 42 0 C30 13 10 13 0 0Z" fill="#2BA3A0"/><path d="M3 0 H36" stroke="#FFFFFF" stroke-width="1.6" stroke-linecap="round" opacity=".7"/></g><g transform="translate(378 282) rotate(215) scale(0.9)"><path d="M0 0 C10 -13 30 -13 42 0 C30 13 10 13 0 0Z" fill="#2BA3A0"/><path d="M3 0 H36" stroke="#FFFFFF" stroke-width="1.6" stroke-linecap="round" opacity=".7"/></g><rect x="172" y="72" width="16" height="110" rx="7" fill="#F28C38" transform="rotate(-12 180 180)"/><rect x="190" y="72" width="16" height="110" rx="7" fill="#8DB63C" transform="rotate(-4 198 180)"/><rect x="208" y="72" width="16" height="110" rx="7" fill="#F28C38" transform="rotate(5 216 180)"/><rect x="226" y="72" width="16" height="110" rx="7" fill="#5E8C3A" transform="rotate(13 234 180)"/><ellipse cx="200" cy="240" rx="62" ry="7" fill="#185A58" opacity=".15"/><path d="M150 150 H250 L238 238 H162Z" fill="#FFFFFF"/><path d="M156 176 H244" stroke="#2BA3A0" stroke-width="7" stroke-linecap="round"/><ellipse cx="292" cy="224" rx="40" ry="12" fill="#FFFFFF"/><ellipse cx="292" cy="220" rx="30" ry="7" fill="#F6B73C" opacity=".6"/></svg>
